<?xml version="1.0" encoding="utf-8"?>
<!-- Generator: Adobe Illustrator 24.0.1, SVG Export Plug-In . SVG Version: 6.00 Build 0)  -->
<svg version="1.1" id="Layer_1" xmlns="http://www.w3.org/2000/svg" xmlns:xlink="http://www.w3.org/1999/xlink" x="0px" y="0px"
	 viewBox="0 0 612 792" style="enable-background:new 0 0 612 792;" xml:space="preserve">
<style type="text/css">
	.st0{fill:#ED1C24;}
	.st1{font-family:'SinhalaMN-Bold';}
	.st2{font-size:56px;}
</style>
<path class="st0" d="M315.1,26.2"/>
<g>
	<g>
		<path class="st0" d="M134.96,399.5c-23.28,26.88-63.93,29.8-90.81,6.53c-26.88-23.27-29.8-63.93-6.53-90.81"/>
		<path class="st0" d="M36.62,270.39"/>
		<path class="st0" d="M149.75,356.93c0-35.39-28.69-64.08-64.08-64.08v64.08"/>
	</g>
	<text transform="matrix(0.9192 0 0 1 168.1841 363.7646)" class="st1 st2">KVARNSTRANDS</text>
	<g>
		<g>
			<path d="M171.75,407.98c0.86,0.54,2.11,0.96,3.42,0.96c1.96,0,3.11-1.02,3.11-2.53c0-1.38-0.8-2.19-2.8-2.93
				c-2.42-0.86-3.92-2.13-3.92-4.21c0-2.31,1.92-4.02,4.81-4.02c1.51,0,2.62,0.35,3.27,0.72l-0.53,1.57c-0.47-0.28-1.46-0.7-2.8-0.7
				c-2.04,0-2.81,1.21-2.81,2.22c0,1.38,0.9,2.06,2.95,2.85c2.52,0.99,3.78,2.19,3.78,4.37c0,2.27-1.68,4.28-5.19,4.28
				c-1.43,0-3-0.43-3.79-0.97L171.75,407.98z"/>
			<path d="M186.15,395.49v6.21h7.17v-6.21h1.93v14.83h-1.93v-6.96h-7.17v6.96h-1.93v-14.83H186.15z"/>
			<path d="M202.36,405.66l-1.53,4.66h-1.99l5.04-14.83h2.3l5.06,14.83h-2.05l-1.59-4.66H202.36z M207.23,404.16l-1.47-4.27
				c-0.32-0.97-0.54-1.85-0.76-2.71h-0.05c-0.21,0.87-0.44,1.77-0.74,2.68l-1.46,4.29H207.23z"/>
			<path d="M214.81,395.69c0.97-0.2,2.37-0.32,3.68-0.32c2.03,0,3.37,0.39,4.3,1.22c0.73,0.65,1.16,1.66,1.16,2.82
				c0,1.95-1.24,3.24-2.8,3.78v0.05c1.13,0.4,1.81,1.47,2.17,3c0.49,2.07,0.84,3.49,1.14,4.07h-1.99c-0.23-0.43-0.57-1.69-0.97-3.55
				c-0.44-2.03-1.24-2.82-2.98-2.88h-1.81v6.43h-1.91V395.69z M216.72,402.44h1.96c2.05,0,3.35-1.12,3.35-2.82
				c0-1.93-1.39-2.76-3.41-2.77c-0.93,0-1.57,0.08-1.9,0.17V402.44z"/>
			<path d="M228.03,395.67c0.92-0.16,2.13-0.3,3.69-0.3c1.88,0,3.27,0.44,4.16,1.23c0.8,0.71,1.3,1.78,1.3,3.1
				c0,1.34-0.4,2.41-1.15,3.17c-1.02,1.08-2.66,1.62-4.53,1.62c-0.58,0-1.11-0.02-1.55-0.14v5.95h-1.91V395.67z M229.94,402.81
				c0.43,0.12,0.96,0.17,1.59,0.17c2.32,0,3.73-1.14,3.73-3.17c0-1.96-1.4-2.92-3.5-2.92c-0.84,0-1.47,0.08-1.81,0.15V402.81z"/>
			<path d="M248.79,403.37h-5.75v5.36h6.43v1.6h-8.36v-14.83h8.02v1.6h-6.09v4.7h5.75V403.37z"/>
			<path d="M253.08,407.98c0.86,0.54,2.11,0.96,3.42,0.96c1.96,0,3.11-1.02,3.11-2.53c0-1.38-0.8-2.19-2.8-2.93
				c-2.42-0.86-3.92-2.13-3.92-4.21c0-2.31,1.92-4.02,4.81-4.02c1.51,0,2.62,0.35,3.27,0.72l-0.53,1.57c-0.47-0.28-1.46-0.7-2.8-0.7
				c-2.04,0-2.81,1.21-2.81,2.22c0,1.38,0.9,2.06,2.95,2.85c2.52,0.99,3.78,2.19,3.78,4.37c0,2.27-1.68,4.28-5.19,4.28
				c-1.43,0-3-0.43-3.79-0.97L253.08,407.98z"/>
			<path d="M268.39,397.11h-4.52v-1.62h10.98v1.62h-4.54v13.21h-1.93V397.11z"/>
			<path d="M286.76,397.11h-4.52v-1.62h10.98v1.62h-4.54v13.21h-1.93V397.11z"/>
			<path d="M308.93,402.75c0,5.09-3.1,7.81-6.88,7.81c-3.93,0-6.67-3.04-6.67-7.53c0-4.7,2.91-7.79,6.87-7.79
				C306.3,395.25,308.93,398.35,308.93,402.75z M297.41,402.99c0,3.17,1.72,6.01,4.74,6.01c3.04,0,4.75-2.79,4.75-6.16
				c0-2.95-1.54-6.03-4.73-6.03C299,396.8,297.41,399.75,297.41,402.99z"/>
			<path d="M325.48,402.75c0,5.09-3.1,7.81-6.88,7.81c-3.93,0-6.67-3.04-6.67-7.53c0-4.7,2.91-7.79,6.87-7.79
				C322.85,395.25,325.48,398.35,325.48,402.75z M313.96,402.99c0,3.17,1.72,6.01,4.74,6.01c3.04,0,4.75-2.79,4.75-6.16
				c0-2.95-1.54-6.03-4.73-6.03C315.54,396.8,313.96,399.75,313.96,402.99z"/>
			<path d="M329.34,395.49h1.93v13.21h6.34v1.62h-8.27V395.49z"/>
			<path d="M340.86,407.98c0.86,0.54,2.11,0.96,3.42,0.96c1.96,0,3.11-1.02,3.11-2.53c0-1.38-0.8-2.19-2.8-2.93
				c-2.42-0.86-3.92-2.13-3.92-4.21c0-2.31,1.92-4.02,4.81-4.02c1.51,0,2.62,0.35,3.27,0.72l-0.54,1.57c-0.47-0.28-1.46-0.7-2.8-0.7
				c-2.04,0-2.81,1.21-2.81,2.22c0,1.38,0.9,2.06,2.95,2.85c2.52,0.99,3.78,2.19,3.78,4.37c0,2.27-1.68,4.28-5.19,4.28
				c-1.43,0-3-0.43-3.79-0.97L340.86,407.98z"/>
			<path d="M359.39,395.49h7.99v1.6h-6.06v4.94h5.6v1.59h-5.6v6.71h-1.92V395.49z"/>
			<path d="M384.17,402.75c0,5.09-3.1,7.81-6.88,7.81c-3.93,0-6.67-3.04-6.67-7.53c0-4.7,2.91-7.79,6.87-7.79
				C381.54,395.25,384.17,398.35,384.17,402.75z M372.65,402.99c0,3.17,1.72,6.01,4.74,6.01c3.04,0,4.75-2.79,4.75-6.16
				c0-2.95-1.54-6.03-4.73-6.03C374.24,396.8,372.65,399.75,372.65,402.99z"/>
			<path d="M388.03,395.69c0.97-0.2,2.37-0.32,3.68-0.32c2.03,0,3.37,0.39,4.3,1.22c0.73,0.65,1.16,1.66,1.16,2.82
				c0,1.95-1.24,3.24-2.8,3.78v0.05c1.13,0.4,1.81,1.47,2.17,3c0.49,2.07,0.84,3.49,1.14,4.07h-1.99c-0.23-0.43-0.57-1.69-0.97-3.55
				c-0.44-2.03-1.24-2.82-2.98-2.88h-1.81v6.43h-1.91V395.69z M389.95,402.44h1.96c2.05,0,3.35-1.12,3.35-2.82
				c0-1.93-1.39-2.76-3.41-2.77c-0.93,0-1.57,0.08-1.9,0.17V402.44z"/>
			<path d="M409.72,410.32l-3.76-14.83h2.03l1.77,7.5c0.43,1.85,0.82,3.69,1.09,5.13h0.05c0.24-1.47,0.71-3.24,1.21-5.15l1.99-7.48
				h1.98l1.81,7.52c0.41,1.78,0.81,3.52,1.04,5.08h0.05c0.3-1.62,0.71-3.28,1.17-5.12l1.96-7.48h1.97l-4.21,14.83h-2L416,402.6
				c-0.47-1.91-0.78-3.35-0.98-4.85h-0.04c-0.25,1.49-0.59,2.93-1.14,4.85l-2.1,7.72H409.72z"/>
			<path d="M439.99,402.75c0,5.09-3.1,7.81-6.88,7.81c-3.93,0-6.67-3.04-6.67-7.53c0-4.7,2.91-7.79,6.87-7.79
				C437.36,395.25,439.99,398.35,439.99,402.75z M428.46,402.99c0,3.17,1.72,6.01,4.74,6.01c3.04,0,4.75-2.79,4.75-6.16
				c0-2.95-1.54-6.03-4.73-6.03C430.05,396.8,428.46,399.75,428.46,402.99z"/>
			<path d="M456.53,402.75c0,5.09-3.1,7.81-6.88,7.81c-3.93,0-6.67-3.04-6.67-7.53c0-4.7,2.91-7.79,6.87-7.79
				C453.9,395.25,456.53,398.35,456.53,402.75z M445.01,402.99c0,3.17,1.72,6.01,4.74,6.01c3.04,0,4.75-2.79,4.75-6.16
				c0-2.95-1.54-6.03-4.73-6.03C446.59,396.8,445.01,399.75,445.01,402.99z"/>
			<path d="M460.39,395.69c1.17-0.19,2.57-0.32,4.08-0.32c2.74,0,4.71,0.65,6.01,1.86c1.33,1.2,2.1,2.92,2.1,5.31
				c0,2.43-0.76,4.4-2.13,5.77c-1.4,1.38-3.69,2.14-6.57,2.14c-1.37,0-2.51-0.05-3.48-0.17V395.69z M462.31,408.81
				c0.49,0.08,1.2,0.09,1.93,0.09c4.11,0.01,6.32-2.28,6.32-6.29c0.02-3.5-1.96-5.71-6-5.71c-0.99,0-1.73,0.09-2.24,0.2V408.81z"/>
		</g>
	</g>
	<g>
		<g>
		</g>
	</g>
</g>
</svg>
