<?xml version="1.0" encoding="utf-8"?>
<!-- Generator: Adobe Illustrator 24.0.1, SVG Export Plug-In . SVG Version: 6.00 Build 0)  -->
<svg version="1.1" id="Layer_1" xmlns="http://www.w3.org/2000/svg" xmlns:xlink="http://www.w3.org/1999/xlink" x="0px" y="0px"
	 viewBox="0 0 200 100" style="enable-background:new 0 0 200 100;" xml:space="preserve">
<style type="text/css">
	.st0{fill:#ED1C24;}
	.st1{font-family:'SinhalaMN-Bold';}
	.st2{font-size:19.5472px;}
</style>
<g>
	<g>
		<path class="st0" d="M40.24,39.86c-7.87,9.38-21.62,10.4-30.72,2.28s-10.08-22.31-2.21-31.7"/>
		<path class="st0" d="M6.97-5.21"/>
		<path class="st0" d="M45.24,25c0-12.35-9.7-22.37-21.67-22.37V25"/>
	</g>
	<text transform="matrix(0.8907 0 0 1 51.4741 27.3853)" class="st1 st2">KVARNSTRANDS</text>
	<g>
		<g>
			<path d="M52.68,42.82c0.29,0.19,0.71,0.33,1.16,0.33c0.66,0,1.05-0.36,1.05-0.88c0-0.48-0.27-0.76-0.95-1.02
				c-0.82-0.3-1.33-0.74-1.33-1.47c0-0.81,0.65-1.4,1.63-1.4c0.51,0,0.89,0.12,1.11,0.25l-0.18,0.55c-0.16-0.1-0.5-0.25-0.95-0.25
				c-0.69,0-0.95,0.42-0.95,0.77c0,0.48,0.31,0.72,1,0.99c0.85,0.34,1.28,0.76,1.28,1.52c0,0.79-0.57,1.49-1.76,1.49
				c-0.49,0-1.01-0.15-1.28-0.34L52.68,42.82z"/>
			<path d="M57.55,38.46v2.17h2.43v-2.17h0.65v5.17h-0.65v-2.43h-2.43v2.43H56.9v-5.17H57.55z"/>
			<path d="M63.04,42.01l-0.52,1.63h-0.67l1.71-5.17h0.78l1.71,5.17h-0.69l-0.54-1.63H63.04z M64.68,41.49L64.19,40
				c-0.11-0.34-0.18-0.65-0.26-0.94h-0.02c-0.07,0.3-0.15,0.62-0.25,0.94l-0.49,1.5H64.68z"/>
			<path d="M67.24,38.53c0.33-0.07,0.8-0.11,1.25-0.11c0.69,0,1.14,0.13,1.45,0.42c0.25,0.23,0.39,0.58,0.39,0.98
				c0,0.68-0.42,1.13-0.95,1.32v0.02c0.38,0.14,0.61,0.51,0.74,1.05c0.17,0.72,0.28,1.22,0.39,1.42h-0.67
				c-0.08-0.15-0.19-0.59-0.33-1.24c-0.15-0.71-0.42-0.98-1.01-1h-0.61v2.24h-0.65V38.53z M67.89,40.89h0.66
				c0.69,0,1.13-0.39,1.13-0.98c0-0.67-0.47-0.96-1.15-0.96c-0.31,0-0.53,0.03-0.64,0.06V40.89z"/>
			<path d="M71.72,38.52c0.31-0.06,0.72-0.1,1.25-0.1c0.64,0,1.11,0.15,1.41,0.43c0.27,0.25,0.44,0.62,0.44,1.08
				c0,0.47-0.14,0.84-0.39,1.11c-0.35,0.38-0.9,0.57-1.53,0.57c-0.2,0-0.38-0.01-0.52-0.05v2.08h-0.65V38.52z M72.36,41.02
				c0.14,0.04,0.32,0.06,0.54,0.06c0.79,0,1.26-0.4,1.26-1.1c0-0.68-0.47-1.02-1.19-1.02c-0.29,0-0.5,0.03-0.61,0.05V41.02z"/>
			<path d="M78.74,41.21h-1.95v1.87h2.18v0.56h-2.83v-5.17h2.71v0.56h-2.06v1.64h1.95V41.21z"/>
			<path d="M80.19,42.82c0.29,0.19,0.71,0.33,1.16,0.33c0.66,0,1.05-0.36,1.05-0.88c0-0.48-0.27-0.76-0.95-1.02
				c-0.82-0.3-1.33-0.74-1.33-1.47c0-0.81,0.65-1.4,1.63-1.4c0.51,0,0.89,0.12,1.11,0.25l-0.18,0.55c-0.16-0.1-0.5-0.25-0.95-0.25
				c-0.69,0-0.95,0.42-0.95,0.77c0,0.48,0.31,0.72,1,0.99c0.85,0.34,1.28,0.76,1.28,1.52c0,0.79-0.57,1.49-1.76,1.49
				c-0.49,0-1.01-0.15-1.28-0.34L80.19,42.82z"/>
			<path d="M85.37,39.03h-1.53v-0.56h3.72v0.56h-1.54v4.61h-0.65V39.03z"/>
			<path d="M91.58,39.03h-1.53v-0.56h3.72v0.56h-1.54v4.61h-0.65V39.03z"/>
			<path d="M99.08,41c0,1.78-1.05,2.72-2.33,2.72c-1.33,0-2.26-1.06-2.26-2.62c0-1.64,0.98-2.72,2.32-2.72
				C98.19,38.38,99.08,39.46,99.08,41z M95.18,41.08c0,1.11,0.58,2.1,1.61,2.1c1.03,0,1.61-0.97,1.61-2.15c0-1.03-0.52-2.1-1.6-2.1
				C95.72,38.92,95.18,39.95,95.18,41.08z"/>
			<path d="M104.68,41c0,1.78-1.05,2.72-2.33,2.72c-1.33,0-2.26-1.06-2.26-2.62c0-1.64,0.98-2.72,2.32-2.72
				C103.79,38.38,104.68,39.46,104.68,41z M100.78,41.08c0,1.11,0.58,2.1,1.61,2.1c1.03,0,1.61-0.97,1.61-2.15
				c0-1.03-0.52-2.1-1.6-2.1C101.32,38.92,100.78,39.95,100.78,41.08z"/>
			<path d="M105.98,38.46h0.65v4.61h2.15v0.56h-2.8V38.46z"/>
			<path d="M109.88,42.82c0.29,0.19,0.71,0.33,1.16,0.33c0.66,0,1.05-0.36,1.05-0.88c0-0.48-0.27-0.76-0.95-1.02
				c-0.82-0.3-1.33-0.74-1.33-1.47c0-0.81,0.65-1.4,1.63-1.4c0.51,0,0.89,0.12,1.11,0.25l-0.18,0.55c-0.16-0.1-0.5-0.25-0.95-0.25
				c-0.69,0-0.95,0.42-0.95,0.77c0,0.48,0.3,0.72,1,0.99c0.85,0.34,1.28,0.76,1.28,1.52c0,0.79-0.57,1.49-1.76,1.49
				c-0.49,0-1.01-0.15-1.28-0.34L109.88,42.82z"/>
			<path d="M116.15,38.46h2.7v0.56h-2.05v1.72h1.9v0.55h-1.9v2.34h-0.65V38.46z"/>
			<path d="M124.53,41c0,1.78-1.05,2.72-2.33,2.72c-1.33,0-2.26-1.06-2.26-2.62c0-1.64,0.98-2.72,2.32-2.72
				C123.64,38.38,124.53,39.46,124.53,41z M120.63,41.08c0,1.11,0.58,2.1,1.61,2.1c1.03,0,1.61-0.97,1.61-2.15
				c0-1.03-0.52-2.1-1.6-2.1C121.17,38.92,120.63,39.95,120.63,41.08z"/>
			<path d="M125.83,38.53c0.33-0.07,0.8-0.11,1.25-0.11c0.69,0,1.14,0.13,1.45,0.42c0.25,0.23,0.39,0.58,0.39,0.98
				c0,0.68-0.42,1.13-0.95,1.32v0.02c0.38,0.14,0.61,0.51,0.74,1.05c0.17,0.72,0.28,1.22,0.39,1.42h-0.67
				c-0.08-0.15-0.19-0.59-0.33-1.24c-0.15-0.71-0.42-0.98-1.01-1h-0.61v2.24h-0.65V38.53z M126.48,40.89h0.66
				c0.69,0,1.13-0.39,1.13-0.98c0-0.67-0.47-0.96-1.15-0.96c-0.31,0-0.53,0.03-0.64,0.06V40.89z"/>
			<path d="M133.17,43.63l-1.27-5.17h0.69l0.6,2.62c0.14,0.65,0.28,1.29,0.37,1.79h0.02c0.08-0.51,0.24-1.13,0.41-1.8l0.67-2.61
				h0.67l0.61,2.62c0.14,0.62,0.28,1.23,0.35,1.77h0.02c0.1-0.57,0.24-1.14,0.4-1.79l0.66-2.61h0.67l-1.42,5.17h-0.68l-0.63-2.69
				c-0.16-0.67-0.26-1.17-0.33-1.69h-0.02c-0.08,0.52-0.2,1.02-0.39,1.69l-0.71,2.69H133.17z"/>
			<path d="M143.41,41c0,1.78-1.05,2.72-2.33,2.72c-1.33,0-2.26-1.06-2.26-2.62c0-1.64,0.98-2.72,2.32-2.72
				C142.52,38.38,143.41,39.46,143.41,41z M139.51,41.08c0,1.11,0.58,2.1,1.61,2.1c1.03,0,1.61-0.97,1.61-2.15
				c0-1.03-0.52-2.1-1.6-2.1C140.05,38.92,139.51,39.95,139.51,41.08z"/>
			<path d="M149,41c0,1.78-1.05,2.72-2.33,2.72c-1.33,0-2.26-1.06-2.26-2.62c0-1.64,0.98-2.72,2.32-2.72
				C148.11,38.38,149,39.46,149,41z M145.11,41.08c0,1.11,0.58,2.1,1.61,2.1c1.03,0,1.61-0.97,1.61-2.15c0-1.03-0.52-2.1-1.6-2.1
				C145.64,38.92,145.11,39.95,145.11,41.08z"/>
			<path d="M150.31,38.53c0.4-0.07,0.87-0.11,1.38-0.11c0.93,0,1.59,0.23,2.03,0.65c0.45,0.42,0.71,1.02,0.71,1.85
				c0,0.85-0.26,1.54-0.72,2.01c-0.47,0.48-1.25,0.75-2.22,0.75c-0.46,0-0.85-0.02-1.18-0.06V38.53z M150.96,43.11
				c0.16,0.03,0.4,0.03,0.65,0.03c1.39,0,2.14-0.79,2.14-2.19c0.01-1.22-0.66-1.99-2.03-1.99c-0.34,0-0.59,0.03-0.76,0.07V43.11z"/>
		</g>
	</g>
	<g>
		<g>
		</g>
	</g>
</g>
</svg>
